# Blender v2.76 (sub 0) OBJ File: 'cone.blend'
# www.blender.org
mtllib pentacone.mtl
o Cone
v 0.000000 2.234135 -0.750000
v -0.000000 0.734135 -0.187500
v -0.713292 2.234135 -0.231763
v -0.178323 0.734135 -0.057941
v -0.440839 2.234135 0.606763
v -0.110210 0.734135 0.151691
v 0.440839 2.234135 0.606763
v 0.110210 0.734135 0.151691
v 0.713292 2.234135 -0.231763
v 0.178323 0.734135 -0.057941
v 0.000000 1.984135 -1.000000
v -0.000000 -0.015865 -0.250000
v -0.951056 1.984135 -0.309017
v -0.237764 -0.015865 -0.077254
v -0.587785 1.984135 0.809017
v -0.146946 -0.015865 0.202254
v 0.587785 1.984135 0.809017
v 0.146946 -0.015865 0.202254
v 0.951057 1.984135 -0.309017
v 0.237764 -0.015865 -0.077254
vn 0.562500 0.290300 0.774200
vn 0.910100 0.290300 -0.295700
vn -0.000000 0.290300 -0.956900
vn 0.000000 1.000000 0.000000
vn -0.562500 0.290300 0.774200
vn -0.910100 0.290300 -0.295700
vn -0.562500 -0.290300 -0.774200
vn -0.910100 -0.290300 0.295700
vn 0.000000 -0.290300 0.956900
vn -0.000000 -1.000000 0.000000
vn 0.562500 -0.290300 -0.774200
vn 0.910100 -0.290300 0.295700
vn -0.457000 0.629000 -0.629000
vn -0.739400 0.629000 0.240200
vn 0.000000 0.629000 0.777400
vn 0.739400 0.629000 0.240200
vn 0.457000 0.629000 -0.629000
usemtl None
s off
f 1//1 3//1 4//1 2//1
f 3//2 5//2 6//2 4//2
f 5//3 7//3 8//3 6//3
f 4//4 6//4 8//4 10//4 2//4
f 9//5 1//5 2//5 10//5
f 7//6 9//6 10//6 8//6
f 11//7 12//7 14//7 13//7
f 13//8 14//8 16//8 15//8
f 15//9 16//9 18//9 17//9
f 14//10 12//10 20//10 18//10 16//10
f 19//11 20//11 12//11 11//11
f 17//12 18//12 20//12 19//12
f 3//13 1//13 11//13 13//13
f 5//14 3//14 13//14 15//14
f 7//15 5//15 15//15 17//15
f 9//16 7//16 17//16 19//16
f 1//17 9//17 19//17 11//17
