# Blender v2.76 (sub 0) OBJ File: 'mountains.blend'
# www.blender.org
mtllib mountains.mtl
o Cone
v 0.009728 -0.171714 -0.362143
v 1.556765 -0.146220 0.402483
v 3.029088 -0.149778 1.785106
v -0.124609 0.217551 1.652922
v 2.909001 -0.131510 3.005616
v 1.604879 -0.142535 3.572539
v -0.386290 -0.173163 3.110868
v -1.794994 -0.117406 2.979806
v -2.606053 -0.064376 1.989005
v -2.578282 -0.098879 0.610500
v -1.595558 -0.135117 -0.204979
v 0.745359 -0.131759 -0.001721
v 2.080503 0.050428 2.646174
v 1.124993 0.026116 0.743409
v 2.275594 -0.117230 1.071556
v -0.077166 0.007574 0.181735
v 2.118567 0.033801 1.748318
v 3.030324 -0.107817 2.419418
v -1.254748 0.044074 0.244106
v 2.267320 -0.095465 3.356782
v -1.962203 0.079394 0.867808
v 0.577370 -0.130374 3.296410
v -1.987907 0.098387 1.870670
v -1.122766 -0.114233 3.031973
v -1.371531 0.067785 2.628026
v -2.193163 -0.054408 2.547956
v -0.291551 0.036333 2.830021
v -2.628094 -0.041606 1.290762
v 1.122234 0.049009 3.039542
v -2.100190 -0.087439 0.179033
v -0.808653 -0.125244 -0.307477
v 0.477361 -0.026884 2.331284
v -0.561428 -0.001390 1.836852
v -1.556510 -0.004948 0.929731
v 0.547028 0.362381 0.986729
v -1.488503 0.013319 0.114962
v -0.624777 0.002295 -0.275812
v 0.707079 -0.028334 0.012290
v 1.647405 0.027424 0.085756
v 2.197827 0.080453 0.738216
v 2.192916 0.045951 1.657392
v 1.545884 0.009712 2.210681
v -0.016562 0.013070 2.098286
v -0.932685 0.195257 0.346389
v -0.276976 0.170945 1.605333
v -1.047196 0.027599 1.397944
v 0.529918 0.152403 1.967881
v -0.949200 0.178631 0.945270
v -1.563592 0.037013 0.506914
v 1.314271 0.188904 1.914687
v -1.064227 0.049365 -0.125455
v 1.779703 0.224224 1.491951
v 0.062879 0.014456 -0.101884
v 1.786942 0.243216 0.823196
v 1.198787 0.030597 0.057614
v 1.368598 0.212615 0.324429
v 1.917083 0.090421 0.369697
v 0.646697 0.181163 0.200435
v 2.219409 0.103223 1.203443
v -0.297790 0.193838 0.074718
v 1.878479 0.057391 1.949723
v 1.022349 0.019585 2.286769
v 2.090073 -0.017229 2.627252
v 1.705984 0.016278 2.290555
v 1.200193 -0.014486 1.715312
v 2.248261 0.667363 1.721470
v 1.329658 -0.003037 1.211951
v 1.700978 -0.007834 0.822859
v 2.344630 -0.061236 1.145611
v 2.742190 0.013044 1.015265
v 2.942985 0.080761 1.436400
v 2.921129 0.020939 2.090248
v 2.608554 0.006351 2.428902
v 1.913048 0.034265 2.459152
v 1.666240 0.392624 1.361341
v 1.900159 0.371952 2.071272
v 1.481963 0.039129 2.063028
v 2.172816 0.293637 2.228698
v 1.628257 0.360385 1.677121
v 1.249990 0.057065 1.442359
v 2.496439 0.393252 2.212394
v 1.528108 0.068794 0.966868
v 2.655915 0.417333 1.964832
v 2.041670 -0.000079 1.021295
v 2.686564 0.439804 1.545263
v 2.530069 0.030907 1.061426
v 2.533577 0.411179 1.205801
v 2.830590 0.094769 1.208393
v 2.291284 0.385178 1.274152
v 2.957721 0.121766 1.752487
v 1.904811 0.408500 1.166326
v 2.742497 0.058236 2.266390
v 2.356603 0.042763 2.541798
v -0.312698 -0.080796 1.630461
v -1.131924 -0.033036 1.896342
v -2.250508 -0.098535 2.267819
v -1.000278 0.978264 0.865138
v -2.530455 -0.106047 1.793261
v -2.563951 -0.044563 1.038315
v -1.519858 -0.172904 0.396708
v -1.188838 -0.051802 -0.238128
v -0.599493 0.068448 -0.241971
v 0.065717 -0.056362 0.175359
v -0.000080 -0.073796 0.765511
v -0.667945 -0.020614 1.764167
v -2.064292 0.551000 1.433301
v -1.092870 0.529781 1.545176
v -1.502355 -0.018225 2.119005
v -0.664212 0.350902 1.242584
v -1.811366 0.475246 1.636110
v -2.453237 0.039721 2.050275
v -0.252916 0.569970 0.806017
v -2.623274 0.034045 1.344310
v -0.374008 0.587910 0.484565
v -1.957686 -0.118695 0.712780
v -0.739259 0.627982 0.159749
v -1.415496 -0.035429 0.094508
v -1.331251 0.586546 0.152429
v -0.915881 0.068256 -0.245503
v -1.466630 0.556816 0.536990
v -0.230911 0.136040 -0.131423
v -2.006581 0.591525 0.990978
v 0.012435 0.009205 0.525818
v -0.101660 0.001991 1.215009
v 2.235178 0.010778 -0.481002
v 2.311120 0.054865 0.190909
v 2.421597 -0.005596 1.109130
v 1.504121 0.988372 -0.008606
v 1.992921 -0.012530 1.286374
v 1.380264 0.044225 1.242925
v 1.040052 -0.074245 0.358545
v 0.585303 0.037542 0.038207
v 0.681376 0.148542 -0.427804
v 1.128861 0.033333 -0.914752
v 1.592308 0.017240 -0.808111
v 2.282912 0.066331 -0.187932
v 1.781928 0.593975 0.884713
v 2.035333 0.574388 0.127530
v 2.427825 0.068536 0.504216
v 1.864157 0.409269 -0.239184
v 1.987556 0.524048 0.703652
v 2.212569 0.122025 1.249164
v 1.582335 0.611486 -0.604588
v 1.616320 0.116785 1.318135
v 1.303494 0.628045 -0.538681
v 1.220524 -0.024205 0.733754
v 0.980865 0.665035 -0.280168
v 0.814625 0.052655 0.248100
v 0.875372 0.626786 0.186900
v 0.625300 0.148365 -0.178145
v 1.161803 0.599343 0.329480
v 0.832280 0.210934 -0.708791
v 1.435985 0.631382 0.798150
v 1.401686 0.093856 -0.840197
v 1.936639 0.087197 -0.686223
v 0.012165 0.103963 -1.008422
v 0.606967 0.108883 -0.725184
v 1.594990 0.077257 -0.261463
v -0.044932 1.210724 -0.058891
v 1.497471 0.077101 0.269395
v 1.134851 0.011788 0.738693
v -0.037971 0.035750 0.421799
v -0.596252 0.096420 0.705979
v -0.935870 0.147629 0.325661
v -1.125129 0.088098 -0.323568
v -0.738418 0.083582 -0.720172
v 0.300421 0.084762 -0.901954
v 0.772680 0.843656 0.153263
v 0.304941 0.846333 -0.393713
v 1.053169 0.075092 -0.593985
v 0.006286 0.648305 -0.452731
v 0.778359 0.805742 -0.096374
v 1.583647 0.107680 0.016745
v -0.423327 0.864260 -0.422713
v 1.326029 0.104739 0.555462
v -0.533235 0.857682 -0.188637
v 0.528626 0.027091 0.604689
v -0.484201 0.874805 0.143778
v -0.270815 0.063670 0.633584
v -0.229117 0.860385 0.429090
v -0.774430 0.107689 0.517979
v 0.002588 0.851236 0.270989
v -1.093712 0.143369 0.026937
v 0.582988 0.871567 0.361599
v -0.905042 0.084542 -0.539433
v -0.380861 0.096968 -0.902123
vn -0.197400 0.961100 -0.193200
vn 0.094400 0.949900 -0.298000
vn -0.247400 0.968100 0.039400
vn -0.168500 0.941200 0.292700
vn 0.000100 0.801500 0.597900
vn -0.101200 0.903600 0.416300
vn 0.143800 0.976200 0.162600
vn 0.199700 0.977700 -0.065100
vn -0.055300 0.941100 -0.333600
vn 0.187900 0.951600 -0.243100
vn -0.010400 -0.999900 0.003200
vn 0.201400 0.964900 -0.168600
vn 0.171100 0.969300 -0.176600
vn 0.085200 0.992100 -0.091800
vn 0.033400 0.950800 -0.308100
vn 0.014800 0.959200 -0.282500
vn 0.023200 0.989800 -0.140500
vn 0.181800 0.980300 0.077200
vn 0.161700 0.986800 -0.011400
vn 0.082300 0.996500 -0.015000
vn 0.033700 0.949900 0.310800
vn 0.073300 0.980600 0.182000
vn 0.035200 0.995400 0.089300
vn -0.144100 0.815900 0.560000
vn -0.075800 0.885800 0.457800
vn -0.030800 0.988500 0.147800
vn -0.037600 0.902200 0.429700
vn -0.055900 0.896900 0.438600
vn 0.000300 0.988300 0.152200
vn -0.225000 0.962900 0.149000
vn -0.161200 0.972100 0.170500
vn -0.053800 0.995000 0.084000
vn -0.238300 0.966200 -0.098800
vn -0.193200 0.980900 -0.023500
vn -0.066200 0.997600 -0.020600
vn 0.156600 0.947000 -0.280400
vn 0.105400 0.960600 -0.257200
vn 0.049900 0.989000 -0.139500
vn -0.126000 0.950600 -0.283700
vn -0.134700 0.968900 -0.207700
vn -0.034200 0.994900 -0.095100
vn 0.287000 0.918300 0.272700
vn -0.127500 0.896700 0.423900
vn 0.356400 0.932300 -0.062200
vn 0.230400 0.880600 -0.414200
vn -0.011100 0.666400 -0.745600
vn 0.128500 0.814900 -0.565200
vn -0.213100 0.948600 -0.233900
vn -0.290200 0.951800 0.099300
vn 0.084400 0.880300 0.466800
vn -0.261400 0.900000 0.348800
vn 0.015500 -0.999900 -0.005000
vn -0.286200 0.925800 0.246900
vn -0.243700 0.934600 0.259100
vn -0.124500 0.982500 0.138200
vn -0.040900 0.898400 0.437300
vn -0.015100 0.914500 0.404300
vn -0.031300 0.977500 0.208600
vn -0.267900 0.957200 -0.109200
vn -0.238400 0.971000 0.020400
vn -0.122500 0.992200 0.024200
vn -0.054300 0.896700 -0.439300
vn -0.111300 0.957800 -0.265100
vn -0.054500 0.989700 -0.132400
vn 0.171000 0.685200 -0.708000
vn 0.091900 0.786300 -0.611000
vn 0.042300 0.974700 -0.219300
vn 0.042200 0.812600 -0.581200
vn 0.066400 0.804100 -0.590800
vn -0.003800 0.974300 -0.225000
vn 0.319900 0.921800 -0.218800
vn 0.230200 0.940300 -0.250800
vn 0.078400 0.988900 -0.126400
vn 0.345500 0.928300 0.137300
vn 0.283600 0.958500 0.030300
vn 0.099500 0.994600 0.029300
vn -0.215200 0.891300 0.399100
vn -0.145400 0.917300 0.370600
vn -0.070800 0.975700 0.207600
vn 0.184500 0.898100 0.399300
vn 0.199200 0.933800 0.297300
vn 0.053000 0.988600 0.141000
vn 0.628800 0.583400 0.514100
vn -0.293900 0.782300 0.549200
vn 0.791600 0.600100 -0.114800
vn 0.620900 0.578500 -0.529000
vn -0.482200 0.188700 -0.855500
vn 0.447400 0.428500 -0.785000
vn -0.653900 0.680800 -0.329900
vn -0.652800 0.753400 0.078400
vn 0.408900 0.533000 0.740700
vn -0.517200 0.635700 0.573100
vn 0.026600 -0.999600 0.008200
vn -0.593100 0.714900 0.370300
vn -0.580700 0.720300 0.379500
vn -0.442000 0.852200 0.279900
vn 0.021000 0.786200 0.617600
vn -0.184700 0.711200 0.678300
vn -0.218400 0.800900 0.557600
vn -0.622400 0.677500 -0.391900
vn -0.627100 0.778900 0.004100
vn -0.445600 0.894500 0.037700
vn -0.260500 0.687100 -0.678300
vn -0.438100 0.764000 -0.473700
vn -0.275100 0.925200 -0.261200
vn 0.413200 0.297200 -0.860800
vn 0.268600 0.400900 -0.875900
vn 0.192900 0.838200 -0.510200
vn -0.170800 0.351100 -0.920600
vn -0.288900 0.342100 -0.894100
vn -0.237800 0.811000 -0.534500
vn 0.723000 0.613000 -0.318700
vn 0.681500 0.636700 -0.360800
vn 0.368700 0.897500 -0.241900
vn 0.762700 0.592400 0.259500
vn 0.728300 0.679300 0.089600
vn 0.485000 0.870600 0.082100
vn -0.519900 0.635700 0.570700
vn -0.162900 0.741500 0.650900
vn -0.102800 0.808000 0.580100
vn 0.569600 0.520900 0.635800
vn 0.666100 0.567300 0.484300
vn 0.353500 0.881400 0.313400
vn 0.830700 0.556300 0.022200
vn 0.336000 0.766000 0.548000
vn 0.127200 0.599200 -0.790400
vn -0.229800 0.470100 -0.852200
vn -0.954000 0.122200 -0.273800
vn -0.421200 0.305500 -0.854000
vn -0.666400 0.661400 0.344200
vn -0.130300 0.777300 0.615500
vn 0.923500 0.353300 0.149100
vn 0.475100 0.441800 0.761000
vn 0.023400 -0.999700 -0.011100
vn 0.061000 0.717400 0.694000
vn 0.035100 0.710100 0.703200
vn 0.006400 0.834400 0.551100
vn 0.496200 0.768000 0.405100
vn 0.407400 0.602600 0.686200
vn 0.392100 0.619300 0.680200
vn -0.830200 0.553700 -0.064600
vn -0.196900 0.812300 0.549000
vn -0.106800 0.880400 0.462000
vn -0.728500 0.616100 -0.299500
vn -0.677000 0.735700 -0.020900
vn -0.354200 0.934400 0.039400
vn -0.558000 0.195700 -0.806500
vn -0.613400 0.251100 -0.748800
vn -0.365000 0.788900 -0.494400
vn -0.811700 0.162200 -0.561100
vn -0.935400 0.156200 -0.317200
vn -0.602000 0.784000 -0.151300
vn 0.008700 0.584600 -0.811300
vn -0.031500 0.592700 -0.804800
vn -0.056300 0.885800 -0.460700
vn 0.716400 0.631400 -0.296700
vn 0.478400 0.757400 -0.444500
vn 0.365300 0.880500 -0.302100
vn 0.224000 0.504700 0.833700
vn 0.600400 0.649300 0.466800
vn 0.607800 0.622300 0.493200
vn 0.920900 0.351000 0.169600
vn 0.808400 0.520200 -0.275500
vn 0.467700 0.874600 -0.127400
vn 0.121600 0.504800 -0.854700
vn 0.632300 0.735800 -0.242500
vn -0.785000 0.541300 -0.301400
vn -0.901200 0.430100 0.053700
vn -0.387000 0.109400 0.915600
vn -0.926200 0.279500 0.253000
vn 0.268200 0.595000 0.757600
vn 0.628800 0.726800 0.276300
vn 0.258600 0.316900 -0.912500
vn 0.848800 0.409800 -0.334100
vn -0.009300 -0.999500 -0.029300
vn 0.735500 0.671500 0.089900
vn 0.739500 0.662500 0.119200
vn 0.591200 0.797700 0.118700
vn 0.499600 0.739200 -0.451600
vn 0.773700 0.566900 -0.283000
vn 0.766600 0.583400 -0.268300
vn -0.165100 0.504000 0.847800
vn 0.553500 0.763000 0.334000
vn 0.484100 0.846100 0.223000
vn -0.403600 0.576500 0.710500
vn -0.105100 0.688400 0.717700
vn -0.002300 0.914500 0.404500
vn -0.895700 0.179500 0.406900
vn -0.846600 0.231100 0.479500
vn -0.581000 0.761300 0.287800
vn -0.673000 0.148400 0.724600
vn -0.430400 0.140600 0.891600
vn -0.237100 0.747700 0.620300
vn -0.826200 0.532000 -0.185200
vn -0.828300 0.541800 -0.142700
vn -0.508400 0.860000 -0.044400
vn -0.213800 0.566200 -0.796100
vn -0.399400 0.695000 -0.597900
vn -0.277200 0.840100 -0.466200
vn 0.884700 0.463300 -0.051800
vn 0.570600 0.615600 -0.543500
vn 0.598000 0.588500 -0.544100
vn 0.279400 0.315300 -0.906900
vn -0.178500 0.458600 -0.870500
vn -0.077900 0.838000 -0.540100
vn -0.579700 0.551100 -0.600200
vn 0.292200 0.684700 -0.667700
vn -0.738900 0.554700 0.382500
vn -0.607900 0.512100 0.606800
vn 0.676000 0.101400 0.729900
vn -0.200200 0.282900 0.938000
vn 0.660300 0.674400 0.330600
vn 0.658400 0.750600 -0.055200
vn -0.415200 0.465400 -0.781700
vn 0.280200 0.486700 -0.827500
vn -0.009000 -0.999700 -0.022500
vn 0.411200 0.613700 -0.674000
vn 0.457700 0.611600 -0.645300
vn 0.369600 0.795700 -0.479800
vn -0.198200 0.699100 -0.687000
vn 0.207100 0.526600 -0.824500
vn 0.232600 0.572000 -0.786600
vn 0.667100 0.677600 0.309500
vn 0.659700 0.745100 -0.098200
vn 0.433300 0.892500 -0.125700
vn 0.404900 0.572600 0.712900
vn 0.585700 0.679300 0.442200
vn 0.356800 0.911900 0.202700
vn -0.299100 0.187900 0.935500
vn -0.157600 0.282500 0.946200
vn -0.138400 0.659600 0.738800
vn 0.233300 0.230300 0.944700
vn 0.559400 0.178500 0.809500
vn 0.452500 0.634700 0.626400
vn -0.596300 0.522800 0.609200
vn -0.623300 0.520500 0.583600
vn -0.422200 0.804300 0.418100
vn -0.790200 0.612300 -0.025700
vn -0.772000 0.630300 0.081400
vn -0.593300 0.803700 0.046100
vn 0.400300 0.507000 -0.763300
vn -0.200200 0.544700 -0.814400
vn -0.203900 0.549000 -0.810600
vn -0.641600 0.485300 -0.594000
vn -0.773300 0.529900 -0.348200
vn -0.530500 0.816900 -0.226200
usemtl None
s off
f 10//1 21//1 30//1
f 1//2 16//2 12//2
f 9//3 23//3 28//3
f 8//4 25//4 26//4
f 7//5 27//5 24//5
f 6//6 29//6 22//6
f 5//7 13//7 20//7
f 3//8 17//8 18//8
f 11//9 19//9 31//9
f 2//10 14//10 15//10
f 1//11 12//11 2//11 15//11 3//11 18//11 5//11 20//11 6//11 22//11 7//11 24//11 8//11 26//11 9//11 28//11 10//11 30//11 11//11 31//11
f 15//12 17//12 3//12
f 15//13 14//13 17//13
f 14//14 4//14 17//14
f 31//15 16//15 1//15
f 31//16 19//16 16//16
f 19//17 4//17 16//17
f 18//18 13//18 5//18
f 18//19 17//19 13//19
f 17//20 4//20 13//20
f 20//21 29//21 6//21
f 20//22 13//22 29//22
f 13//23 4//23 29//23
f 22//24 27//24 7//24
f 22//25 29//25 27//25
f 29//26 4//26 27//26
f 24//27 25//27 8//27
f 24//28 27//28 25//28
f 27//29 4//29 25//29
f 26//30 23//30 9//30
f 26//31 25//31 23//31
f 25//32 4//32 23//32
f 28//33 21//33 10//33
f 28//34 23//34 21//34
f 23//35 4//35 21//35
f 12//36 14//36 2//36
f 12//37 16//37 14//37
f 16//38 4//38 14//38
f 30//39 19//39 11//39
f 30//40 21//40 19//40
f 21//41 4//41 19//41
f 41//42 52//42 61//42
f 32//43 47//43 43//43
f 40//44 54//44 59//44
f 39//45 56//45 57//45
f 38//46 58//46 55//46
f 37//47 60//47 53//47
f 36//48 44//48 51//48
f 34//49 48//49 49//49
f 42//50 50//50 62//50
f 33//51 45//51 46//51
f 32//52 43//52 33//52 46//52 34//52 49//52 36//52 51//52 37//52 53//52 38//52 55//52 39//52 57//52 40//52 59//52 41//52 61//52 42//52 62//52
f 46//53 48//53 34//53
f 46//54 45//54 48//54
f 45//55 35//55 48//55
f 62//56 47//56 32//56
f 62//57 50//57 47//57
f 50//58 35//58 47//58
f 49//59 44//59 36//59
f 49//60 48//60 44//60
f 48//61 35//61 44//61
f 51//62 60//62 37//62
f 51//63 44//63 60//63
f 44//64 35//64 60//64
f 53//65 58//65 38//65
f 53//66 60//66 58//66
f 60//67 35//67 58//67
f 55//68 56//68 39//68
f 55//69 58//69 56//69
f 58//70 35//70 56//70
f 57//71 54//71 40//71
f 57//72 56//72 54//72
f 56//73 35//73 54//73
f 59//74 52//74 41//74
f 59//75 54//75 52//75
f 54//76 35//76 52//76
f 43//77 45//77 33//77
f 43//78 47//78 45//78
f 47//79 35//79 45//79
f 61//80 50//80 42//80
f 61//81 52//81 50//81
f 52//82 35//82 50//82
f 72//83 83//83 92//83
f 63//84 78//84 74//84
f 71//85 85//85 90//85
f 70//86 87//86 88//86
f 69//87 89//87 86//87
f 68//88 91//88 84//88
f 67//89 75//89 82//89
f 65//90 79//90 80//90
f 73//91 81//91 93//91
f 64//92 76//92 77//92
f 63//93 74//93 64//93 77//93 65//93 80//93 67//93 82//93 68//93 84//93 69//93 86//93 70//93 88//93 71//93 90//93 72//93 92//93 73//93 93//93
f 77//94 79//94 65//94
f 77//95 76//95 79//95
f 76//96 66//96 79//96
f 93//97 78//97 63//97
f 93//98 81//98 78//98
f 81//99 66//99 78//99
f 80//100 75//100 67//100
f 80//101 79//101 75//101
f 79//102 66//102 75//102
f 82//103 91//103 68//103
f 82//104 75//104 91//104
f 75//105 66//105 91//105
f 84//106 89//106 69//106
f 84//107 91//107 89//107
f 91//108 66//108 89//108
f 86//109 87//109 70//109
f 86//110 89//110 87//110
f 89//111 66//111 87//111
f 88//112 85//112 71//112
f 88//113 87//113 85//113
f 87//114 66//114 85//114
f 90//115 83//115 72//115
f 90//116 85//116 83//116
f 85//117 66//117 83//117
f 74//118 76//118 64//118
f 74//119 78//119 76//119
f 78//120 66//120 76//120
f 92//121 81//121 73//121
f 92//122 83//122 81//122
f 83//123 66//123 81//123
f 103//124 114//124 123//124
f 94//125 109//125 105//125
f 102//126 116//126 121//126
f 101//127 118//127 119//127
f 100//128 120//128 117//128
f 99//129 122//129 115//129
f 98//130 106//130 113//130
f 96//131 110//131 111//131
f 104//132 112//132 124//132
f 95//133 107//133 108//133
f 94//134 105//134 95//134 108//134 96//134 111//134 98//134 113//134 99//134 115//134 100//134 117//134 101//134 119//134 102//134 121//134 103//134 123//134 104//134 124//134
f 108//135 110//135 96//135
f 108//136 107//136 110//136
f 107//137 97//137 110//137
f 124//138 109//138 94//138
f 124//139 112//139 109//139
f 112//140 97//140 109//140
f 111//141 106//141 98//141
f 111//142 110//142 106//142
f 110//143 97//143 106//143
f 113//144 122//144 99//144
f 113//145 106//145 122//145
f 106//146 97//146 122//146
f 115//147 120//147 100//147
f 115//148 122//148 120//148
f 122//149 97//149 120//149
f 117//150 118//150 101//150
f 117//151 120//151 118//151
f 120//152 97//152 118//152
f 119//153 116//153 102//153
f 119//154 118//154 116//154
f 118//155 97//155 116//155
f 121//156 114//156 103//156
f 121//157 116//157 114//157
f 116//158 97//158 114//158
f 105//159 107//159 95//159
f 105//160 109//160 107//160
f 109//161 97//161 107//161
f 123//162 112//162 104//162
f 123//163 114//163 112//163
f 114//164 97//164 112//164
f 134//165 145//165 154//165
f 125//166 140//166 136//166
f 133//167 147//167 152//167
f 132//168 149//168 150//168
f 131//169 151//169 148//169
f 130//170 153//170 146//170
f 129//171 137//171 144//171
f 127//172 141//172 142//172
f 135//173 143//173 155//173
f 126//174 138//174 139//174
f 125//175 136//175 126//175 139//175 127//175 142//175 129//175 144//175 130//175 146//175 131//175 148//175 132//175 150//175 133//175 152//175 134//175 154//175 135//175 155//175
f 139//176 141//176 127//176
f 139//177 138//177 141//177
f 138//178 128//178 141//178
f 155//179 140//179 125//179
f 155//180 143//180 140//180
f 143//181 128//181 140//181
f 142//182 137//182 129//182
f 142//183 141//183 137//183
f 141//184 128//184 137//184
f 144//185 153//185 130//185
f 144//186 137//186 153//186
f 137//187 128//187 153//187
f 146//188 151//188 131//188
f 146//189 153//189 151//189
f 153//190 128//190 151//190
f 148//191 149//191 132//191
f 148//192 151//192 149//192
f 151//193 128//193 149//193
f 150//194 147//194 133//194
f 150//195 149//195 147//195
f 149//196 128//196 147//196
f 152//197 145//197 134//197
f 152//198 147//198 145//198
f 147//199 128//199 145//199
f 136//200 138//200 126//200
f 136//201 140//201 138//201
f 140//202 128//202 138//202
f 154//203 143//203 135//203
f 154//204 145//204 143//204
f 145//205 128//205 143//205
f 165//206 176//206 185//206
f 156//207 171//207 167//207
f 164//208 178//208 183//208
f 163//209 180//209 181//209
f 162//210 182//210 179//210
f 161//211 184//211 177//211
f 160//212 168//212 175//212
f 158//213 172//213 173//213
f 166//214 174//214 186//214
f 157//215 169//215 170//215
f 156//216 167//216 157//216 170//216 158//216 173//216 160//216 175//216 161//216 177//216 162//216 179//216 163//216 181//216 164//216 183//216 165//216 185//216 166//216 186//216
f 170//217 172//217 158//217
f 170//218 169//218 172//218
f 169//219 159//219 172//219
f 186//220 171//220 156//220
f 186//221 174//221 171//221
f 174//222 159//222 171//222
f 173//223 168//223 160//223
f 173//224 172//224 168//224
f 172//225 159//225 168//225
f 175//226 184//226 161//226
f 175//227 168//227 184//227
f 168//228 159//228 184//228
f 177//229 182//229 162//229
f 177//230 184//230 182//230
f 184//231 159//231 182//231
f 179//232 180//232 163//232
f 179//233 182//233 180//233
f 182//234 159//234 180//234
f 181//235 178//235 164//235
f 181//236 180//236 178//236
f 180//237 159//237 178//237
f 183//238 176//238 165//238
f 183//239 178//239 176//239
f 178//240 159//240 176//240
f 167//241 169//241 157//241
f 167//242 171//242 169//242
f 171//243 159//243 169//243
f 185//244 174//244 166//244
f 185//245 176//245 174//245
f 176//246 159//246 174//246
